<svg xmlns="http://www.w3.org/2000/svg" viewBox="0 0 200 240" role="img" aria-label="P&amp;L Holding mark">
  <title>P&amp;L Holding — símbolo</title>
  
  <g fill="#102a47">
    <polygon points="60,68 84,68 84,200 60,200"></polygon>
    <polygon points="60,68 72,52 84,68"></polygon>
    <rect x="92" y="92" width="32" height="108"></rect>
    <rect x="132" y="120" width="40" height="80"></rect>
    <rect x="48" y="200" width="140" height="6"></rect>
  </g>
  <g stroke="#faf7f1" stroke-width="0.8" opacity="0.45">
    <line x1="72" y1="86" x2="72" y2="194"></line>
    <line x1="100" y1="106" x2="100" y2="194"></line>
    <line x1="108" y1="106" x2="108" y2="194"></line>
    <line x1="116" y1="106" x2="116" y2="194"></line>
    <line x1="142" y1="134" x2="142" y2="194"></line>
    <line x1="152" y1="134" x2="152" y2="194"></line>
    <line x1="162" y1="134" x2="162" y2="194"></line>
  </g>
  <path fill="#b8965a" d="M72 52 C 80 38 96 30 110 36 C 102 50 88 56 76 54 C 74 54 73 53 72 52 Z"></path>
</svg>